<?xml version="1.0" encoding="UTF-8"?>
<!DOCTYPE svg PUBLIC "-//W3C//DTD SVG 1.1//EN" "http://www.w3.org/Graphics/SVG/1.1/DTD/svg11.dtd">
<svg xmlns="http://www.w3.org/2000/svg" version="1.1" width="500px" height="500px" style="shape-rendering:geometricPrecision; text-rendering:geometricPrecision; image-rendering:optimizeQuality; fill-rule:evenodd; clip-rule:evenodd" xmlns:xlink="http://www.w3.org/1999/xlink">
<g><path style="opacity:1" fill="#0d203b" d="M -0.5,-0.5 C 166.167,-0.5 332.833,-0.5 499.5,-0.5C 499.5,166.167 499.5,332.833 499.5,499.5C 332.833,499.5 166.167,499.5 -0.5,499.5C -0.5,332.833 -0.5,166.167 -0.5,-0.5 Z"/></g>
<g><path style="opacity:1" fill="#98a0ab" d="M 222.5,156.5 C 231.318,155.507 240.318,155.173 249.5,155.5C 249.5,156.833 249.5,158.167 249.5,159.5C 248.596,158.791 248.263,157.791 248.5,156.5C 239.833,156.5 231.167,156.5 222.5,156.5 Z"/></g>
<g><path style="opacity:1" fill="#959ea9" d="M 294.5,156.5 C 285.833,156.5 277.167,156.5 268.5,156.5C 268.737,157.791 268.404,158.791 267.5,159.5C 267.5,158.167 267.5,156.833 267.5,155.5C 276.682,155.173 285.682,155.507 294.5,156.5 Z"/></g>
<g><path style="opacity:1" fill="#5bdfe4" d="M 146.5,156.5 C 162.837,156.333 179.17,156.5 195.5,157C 206.855,161.168 213.355,169.335 215,181.5C 215.667,209.833 215.667,238.167 215,266.5C 214.134,281.354 206.634,290.854 192.5,295C 177.17,295.5 161.837,295.667 146.5,295.5C 146.5,249.167 146.5,202.833 146.5,156.5 Z"/></g>
<g><path style="opacity:1" fill="#fbfcfc" d="M 222.5,156.5 C 231.167,156.5 239.833,156.5 248.5,156.5C 248.263,157.791 248.596,158.791 249.5,159.5C 252.848,188.465 256.015,217.465 259,246.5C 261.834,217.49 264.668,188.49 267.5,159.5C 268.404,158.791 268.737,157.791 268.5,156.5C 277.167,156.5 285.833,156.5 294.5,156.5C 289.248,202.181 283.748,247.848 278,293.5C 265.415,295.469 252.582,296.136 239.5,295.5C 233.915,249.155 228.249,202.822 222.5,156.5 Z"/></g>
<g><path style="opacity:1" fill="#102742" d="M 174.5,180.5 C 177.518,180.335 180.518,180.502 183.5,181C 185.049,182.214 186.215,183.714 187,185.5C 187.667,212.167 187.667,238.833 187,265.5C 186.426,267.492 185.259,268.992 183.5,270C 180.518,270.498 177.518,270.665 174.5,270.5C 174.5,240.5 174.5,210.5 174.5,180.5 Z"/></g>
</svg>
